<?xml version="1.0" encoding="utf-8"?>
<!-- Generator: Adobe Illustrator 16.0.0, SVG Export Plug-In . SVG Version: 6.00 Build 0)  -->
<!DOCTYPE svg PUBLIC "-//W3C//DTD SVG 1.1//EN" "http://www.w3.org/Graphics/SVG/1.1/DTD/svg11.dtd">
<svg version="1.1" id="Calque_1" xmlns="http://www.w3.org/2000/svg" xmlns:xlink="http://www.w3.org/1999/xlink" x="0px" y="0px"
	 width="100px" height="100px" viewBox="0 0 100 100" enable-background="new 0 0 100 100" xml:space="preserve">
<g>
	<path fill="#444444" d="M98.059,50.693c-5.47,0-10.855,0.328-16.103,0.922c0.037-0.139,0.085-0.271,0.085-0.42V47.19h11.625
		c0.701,0,1.354-0.368,1.713-0.969c0.364-0.597,0.386-1.35,0.057-1.971l-4.809-9.074h1.605c0.011,0,0.028,0,0.04,0
		c1.122,0.064,2.043-0.885,2.043-2.002c0-0.629-0.288-1.194-0.746-1.558l-6.268-8.454h2.393c0.012,0,0.028,0,0.039,0
		c1.042,0.017,2.043-0.885,2.043-2.002c0-0.589-0.257-1.129-0.672-1.498L81.815,5.652c-0.371-0.561-1.002-0.897-1.67-0.897
		s-1.292,0.337-1.67,0.897l-9.549,14.409c-0.409,0.608-0.446,1.405-0.093,2.054c0.349,0.648,1.024,1.057,1.759,1.057h2.39
		l-6.544,8.818c-0.447,0.604-0.516,1.417-0.175,2.087c0.335,0.68,1.031,1.101,1.789,1.101h1.598l-4.805,9.075
		c-0.329,0.621-0.311,1.374,0.056,1.97c0.36,0.601,1.014,0.97,1.713,0.97h11.418v4.004c0,0.32,0.089,0.617,0.229,0.887
		c-18.032,2.559-34.062,8.574-45.092,17.135c-8.846-3.332-19.566-5.258-31.228-5.258v4.004c28.433,0,51.559,12.242,51.559,27.283
		h4.005c0-9.855-7.698-18.504-19.955-24.201c14.364-10.246,36.593-16.346,60.501-16.346v-4.004h0.008V50.693z"/>
	<path fill="#444444" d="M28.144,27.505c0,5.529-4.482,10.011-10.012,10.011S8.12,33.034,8.12,27.505
		c0-5.529,4.482-10.012,10.012-10.012S28.144,21.976,28.144,27.505z"/>
</g>
</svg>
