<svg id="visual" viewBox="0 0 960 540" width="960" height="540" xmlns="http://www.w3.org/2000/svg" xmlns:xlink="http://www.w3.org/1999/xlink" version="1.1"><rect x="0" y="0" width="960" height="540" fill="#931C1C"></rect><path d="M0 137L160 246L320 120L480 152L640 228L800 166L960 143L960 541L800 541L640 541L480 541L320 541L160 541L0 541Z" fill="#f5730a"></path><path d="M0 269L160 160L320 228L480 241L640 242L800 256L960 203L960 541L800 541L640 541L480 541L320 541L160 541L0 541Z" fill="#e3630a"></path><path d="M0 299L160 324L320 280L480 220L640 291L800 205L960 212L960 541L800 541L640 541L480 541L320 541L160 541L0 541Z" fill="#d15308"></path><path d="M0 356L160 302L320 353L480 360L640 313L800 303L960 285L960 541L800 541L640 541L480 541L320 541L160 541L0 541Z" fill="#be4407"></path><path d="M0 341L160 407L320 411L480 341L640 414L800 396L960 399L960 541L800 541L640 541L480 541L320 541L160 541L0 541Z" fill="#ac3505"></path><path d="M0 432L160 419L320 457L480 439L640 412L800 395L960 403L960 541L800 541L640 541L480 541L320 541L160 541L0 541Z" fill="#992503"></path><path d="M0 442L160 451L320 441L480 453L640 466L800 484L960 466L960 541L800 541L640 541L480 541L320 541L160 541L0 541Z" fill="#871400"></path></svg>