<svg fill="#444444" viewBox="0 0 100 100" xmlns="http://www.w3.org/2000/svg" xmlns:xlink="http://www.w3.org/1999/xlink"><mask id="a" fill="#fff"><path d="m49.85 6.118c-7.444 0-13.903-2.018-17.095-4.977-13.159 6.745-28.262 16.547-32.135 19.089 10.416 3.732 22.821 6.304 36.338 7.315 4.195.318 8.494.467 12.874.467 18.525 0 35.592-2.898 49.247-7.795-3.799-2.625-18.773-12.84-31.623-19.584-2.976 3.233-9.741 5.485-17.606 5.485z" fill="#fff" fill-rule="evenodd"/></mask><mask id="b" fill="#fff"><path d="m59.842 7.665v8.912c14.08-.894 27.005-3.468 37.824-7.295v-8.915c-10.819 3.827-23.746 6.413-37.824 7.298zm-59.767 1.617c10.82 3.827 23.749 6.401 37.826 7.295v-8.912c-14.077-.885-27.007-3.47-37.826-7.298z" fill="#fff" fill-rule="evenodd"/></mask><mask id="c" fill="#fff"><path d="m59.842 8.26v8.917c14.08-.884 27.005-3.47 37.824-7.298v-8.899c-10.819 3.813-23.746 6.394-37.824 7.278zm-59.767 1.62c10.82 3.828 23.749 6.413 37.826 7.297v-8.917c-14.077-.885-27.007-3.466-37.826-7.282z" fill="#fff" fill-rule="evenodd"/></mask><mask id="d" fill="#fff"><path d="m59.842 7.881v8.915c14.08-.883 27.005-3.47 37.824-7.297v-8.902c-10.819 3.814-23.746 6.397-37.824 7.284zm-59.767 1.619c10.82 3.824 23.749 6.414 37.826 7.297v-8.916c-14.077-.887-27.007-3.47-37.826-7.284z" fill="#fff" fill-rule="evenodd"/></mask><mask id="e" fill="#fff"><path d="m.62 3.698c0 1.544 5.298 2.79 11.83 2.79 6.531 0 11.831-1.246 11.831-2.79 0-1.549-5.3-2.807-11.831-2.807-6.532 0-11.83 1.259-11.83 2.807z" fill="#fff" fill-rule="evenodd"/></mask><g fill-rule="evenodd"><path d="m-34.763-34.752h169.226v98.145h-169.226z" mask="url(#a)" transform="translate(0 22.922)"/><path d="m-35.309-35.016h168.359v86.977h-168.359z" mask="url(#b)" transform="translate(.98 65.078)"/><path d="m-35.309-34.403h168.359v86.964h-168.359z" mask="url(#c)" transform="translate(.98 54.294)"/><path d="m-35.309-34.787h168.359v86.965h-168.359z" mask="url(#d)" transform="translate(.98 44.49)"/><path d="m-36.849-36.04h98.598v79.46h-98.598z" mask="url(#e)" transform="translate(37.255 19)"/></g></svg>
